<svg width="120" height="120" viewBox="0 0 120 120" fill="none" xmlns="http://www.w3.org/2000/svg">
<path d="M60.624 83.64C55.0773 83.64 50.576 82.5307 47.12 80.312C43.664 78.072 41.68 74.6267 41.168 69.976L50.896 69.784C51.408 71.896 52.5067 73.5067 54.192 74.616C55.8987 75.704 58.032 76.248 60.592 76.248C62.128 76.248 63.4827 76.0027 64.656 75.512C65.8507 75 66.7893 74.3173 67.472 73.464C68.1547 72.5893 68.496 71.5973 68.496 70.488C68.496 68.7813 67.952 67.512 66.864 66.68C65.776 65.8267 64.1013 65.144 61.84 64.632L54.256 63C50.736 62.296 47.9093 60.8987 45.776 58.808C43.664 56.696 42.5867 53.8693 42.544 50.328C42.5227 47.4267 43.3013 44.92 44.88 42.808C46.48 40.6747 48.6453 39.032 51.376 37.88C54.128 36.728 57.2107 36.152 60.624 36.152C64.1227 36.152 67.1413 36.7813 69.68 38.04C72.24 39.2773 74.2027 40.952 75.568 43.064C76.9547 45.1547 77.6267 47.4693 77.584 50.008L68.144 50.168C67.8453 48.12 67.1627 46.5093 66.096 45.336C65.0293 44.1627 63.2587 43.576 60.784 43.576C59.504 43.576 58.3627 43.7147 57.36 43.992C56.3573 44.2693 55.4933 44.664 54.768 45.176C54.0427 45.6667 53.488 46.2533 53.104 46.936C52.7413 47.6187 52.56 48.3867 52.56 49.24C52.56 50.584 53.008 51.6507 53.904 52.44C54.8213 53.208 56.5387 53.9227 59.056 54.584L66.512 56.408C70.7147 57.4107 73.744 59.128 75.6 61.56C77.4773 63.992 78.416 66.9467 78.416 70.424C78.416 73.0907 77.68 75.416 76.208 77.4C74.7573 79.384 72.6987 80.92 70.032 82.008C67.3653 83.096 64.2293 83.64 60.624 83.64ZM56.624 30.104H64.72V38.424H56.624V30.104ZM56.464 80.792H64.528V89.112H56.464V80.792Z" fill="#212B36"/>
</svg>
