<svg width="122" height="120" viewBox="0 0 122 120" fill="none" xmlns="http://www.w3.org/2000/svg">
<path fill-rule="evenodd" clip-rule="evenodd" d="M33.2586 100.284H89.1811C91.0775 100.281 92.8957 99.5272 94.2366 98.1862C95.5776 96.8453 96.3319 95.0271 96.334 93.1307V29.1079L85.2854 20.3014H33.2586C31.3622 20.3035 29.5441 21.0578 28.2031 22.3988C26.8621 23.7398 26.1079 25.5579 26.1057 27.4543V93.1307C26.1079 95.0271 26.8621 96.8452 28.2031 98.1862C29.5441 99.5272 31.3622 100.281 33.2586 100.284ZM87.4641 29.3913H96.1188C96.1497 29.3913 96.1799 29.3817 96.2051 29.3637C96.2303 29.3458 96.2493 29.3205 96.2594 29.2913C96.2696 29.2621 96.2704 29.2305 96.2618 29.2008C96.2532 29.1711 96.2355 29.1449 96.2113 29.1257L85.3231 20.5C85.3012 20.4826 85.2748 20.4718 85.247 20.4687C85.2192 20.4656 85.1911 20.4705 85.1659 20.4826C85.1407 20.4948 85.1194 20.5139 85.1045 20.5376C85.0897 20.5613 85.0818 20.5887 85.0818 20.6167V27.009C85.0818 27.3218 85.1434 27.6316 85.2631 27.9206C85.3828 28.2097 85.5583 28.4723 85.7795 28.6935C86.0008 28.9147 86.2634 29.0902 86.5524 29.2099C86.8414 29.3297 87.1512 29.3913 87.4641 29.3913Z" fill="white"/>
<g opacity="0.4">
<path d="M77.5129 41.4576H40.013C39.8565 41.4578 39.7015 41.4271 39.5568 41.3673C39.4121 41.3075 39.2807 41.2198 39.1699 41.1092C39.0592 40.9986 38.9713 40.8672 38.9114 40.7226C38.8514 40.578 38.8206 40.423 38.8206 40.2665C38.8206 40.1099 38.8514 39.9549 38.9114 39.8103C38.9713 39.6657 39.0592 39.5344 39.1699 39.4237C39.2807 39.3131 39.4121 39.2254 39.5568 39.1656C39.7015 39.1058 39.8565 39.0751 40.013 39.0753H77.5129C77.8288 39.0753 78.1318 39.2008 78.3552 39.4242C78.5786 39.6476 78.7041 39.9506 78.7041 40.2665C78.7041 40.5824 78.5786 40.8854 78.3552 41.1087C78.1318 41.3321 77.8288 41.4576 77.5129 41.4576Z" fill="#919EAB"/>
<path d="M82.4265 45.4777H40.0132C39.8567 45.4777 39.7019 45.4469 39.5573 45.3871C39.4128 45.3272 39.2815 45.2395 39.1709 45.1288C39.0603 45.0182 38.9726 44.8869 38.9127 44.7424C38.8528 44.5979 38.822 44.443 38.822 44.2866C38.822 44.1302 38.8528 43.9753 38.9127 43.8307C38.9726 43.6862 39.0603 43.5549 39.1709 43.4443C39.2815 43.3337 39.4128 43.246 39.5573 43.1861C39.7019 43.1262 39.8567 43.0954 40.0132 43.0954H82.4265C82.5829 43.0954 82.7378 43.1262 82.8823 43.1861C83.0268 43.246 83.1582 43.3337 83.2688 43.4443C83.3794 43.5549 83.4671 43.6862 83.527 43.8307C83.5868 43.9753 83.6176 44.1302 83.6176 44.2866C83.6176 44.443 83.5868 44.5979 83.527 44.7424C83.4671 44.8869 83.3794 45.0182 83.2688 45.1288C83.1582 45.2395 83.0268 45.3272 82.8823 45.3871C82.7378 45.4469 82.5829 45.4777 82.4265 45.4777Z" fill="#919EAB"/>
</g>
<g opacity="0.2">
<path d="M77.5129 59.4735H40.013C39.8565 59.4737 39.7015 59.443 39.5568 59.3832C39.4121 59.3235 39.2807 59.2357 39.1699 59.1251C39.0592 59.0145 38.9713 58.8831 38.9114 58.7385C38.8514 58.5939 38.8206 58.4389 38.8206 58.2824C38.8206 58.1259 38.8514 57.9709 38.9114 57.8263C38.9713 57.6817 39.0592 57.5503 39.1699 57.4397C39.2807 57.329 39.4121 57.2413 39.5568 57.1815C39.7015 57.1218 39.8565 57.0911 40.013 57.0912H77.5129C77.8288 57.0912 78.1318 57.2167 78.3552 57.4401C78.5786 57.6635 78.7041 57.9665 78.7041 58.2824C78.7041 58.5983 78.5786 58.9013 78.3552 59.1247C78.1318 59.348 77.8288 59.4735 77.5129 59.4735Z" fill="#919EAB"/>
<path d="M82.4265 63.4937H40.0132C39.8567 63.4937 39.7019 63.4628 39.5573 63.403C39.4128 63.3431 39.2815 63.2554 39.1709 63.1448C39.0603 63.0342 38.9726 62.9029 38.9127 62.7583C38.8528 62.6138 38.822 62.4589 38.822 62.3025C38.822 62.1461 38.8528 61.9912 38.9127 61.8467C38.9726 61.7022 39.0603 61.5709 39.1709 61.4602C39.2815 61.3496 39.4128 61.2619 39.5573 61.202C39.7019 61.1422 39.8567 61.1114 40.0132 61.1114H82.4265C82.5829 61.1114 82.7378 61.1422 82.8823 61.202C83.0268 61.2619 83.1582 61.3496 83.2688 61.4602C83.3794 61.5709 83.4671 61.7022 83.527 61.8467C83.5868 61.9912 83.6176 62.1461 83.6176 62.3025C83.6176 62.4589 83.5868 62.6138 83.527 62.7583C83.4671 62.9029 83.3794 63.0342 83.2688 63.1448C83.1582 63.2554 83.0268 63.3431 82.8823 63.403C82.7378 63.4628 82.5829 63.4937 82.4265 63.4937Z" fill="#919EAB"/>
</g>
<g opacity="0.08">
<path d="M77.513 77.4897H40.0132C39.6973 77.4897 39.3943 77.3642 39.1709 77.1408C38.9475 76.9174 38.822 76.6144 38.822 76.2985C38.822 75.9826 38.9475 75.6796 39.1709 75.4562C39.3943 75.2329 39.6973 75.1074 40.0132 75.1074H77.513C77.8289 75.1074 78.1319 75.2329 78.3553 75.4562C78.5787 75.6796 78.7042 75.9826 78.7042 76.2985C78.7042 76.6144 78.5787 76.9174 78.3553 77.1408C78.1319 77.3642 77.8289 77.4897 77.513 77.4897Z" fill="#919EAB"/>
<path d="M82.4264 81.5098H40.013C39.8565 81.5099 39.7015 81.4792 39.5568 81.4195C39.4121 81.3597 39.2807 81.272 39.1699 81.1614C39.0592 81.0507 38.9713 80.9194 38.9114 80.7748C38.8514 80.6302 38.8206 80.4752 38.8206 80.3186C38.8206 80.1621 38.8514 80.0071 38.9114 79.8625C38.9713 79.7179 39.0592 79.5865 39.1699 79.4759C39.2807 79.3653 39.4121 79.2775 39.5568 79.2178C39.7015 79.158 39.8565 79.1273 40.013 79.1275H82.4264C82.7423 79.1275 83.0453 79.253 83.2686 79.4764C83.492 79.6997 83.6175 80.0027 83.6175 80.3186C83.6175 80.6345 83.492 80.9375 83.2686 81.1609C83.0453 81.3843 82.7423 81.5098 82.4264 81.5098Z" fill="#919EAB"/>
</g>
<path d="M96.1188 29.3913H87.4641C87.1512 29.3913 86.8414 29.3297 86.5524 29.21C86.2634 29.0902 86.0008 28.9148 85.7795 28.6936C85.5583 28.4723 85.3828 28.2097 85.2631 27.9207C85.1434 27.6316 85.0818 27.3219 85.0818 27.009V20.6167C85.0818 20.5887 85.0897 20.5613 85.1045 20.5376C85.1194 20.5139 85.1407 20.4949 85.1659 20.4827C85.191 20.4705 85.2192 20.4657 85.247 20.4687C85.2748 20.4718 85.3012 20.4826 85.3231 20.5L96.2113 29.1257C96.2355 29.1449 96.2532 29.1712 96.2618 29.2009C96.2704 29.2305 96.2696 29.2622 96.2594 29.2914C96.2493 29.3206 96.2303 29.3459 96.2051 29.3638C96.1799 29.3817 96.1497 29.3913 96.1188 29.3913Z" fill="#DFE3E8"/>
<path d="M42.3863 25.95C42.3863 29.3024 41.3922 32.5795 39.5297 35.3669C37.6673 38.1543 35.02 40.3268 31.9228 41.6098C28.8256 42.8927 25.4175 43.2283 22.1296 42.5743C18.8416 41.9203 15.8214 40.306 13.4509 37.9355C11.0804 35.565 9.46604 32.5448 8.81203 29.2568C8.15801 25.9688 8.49367 22.5607 9.77658 19.4635C11.0595 16.3663 13.232 13.7191 16.0194 11.8566C18.8068 9.9941 22.0839 9 25.4363 9C29.9313 9.00142 34.2418 10.7877 37.4202 13.9661C40.5987 17.1445 42.3849 21.455 42.3863 25.95Z" fill="#919EAB" fill-opacity="0.24"/>
<path d="M41.7853 25.9494C41.7853 29.183 40.8264 32.344 39.0299 35.0326C37.2334 37.7213 34.68 39.8168 31.6925 41.0543C28.705 42.2917 25.4177 42.6155 22.2462 41.9846C19.0748 41.3538 16.1616 39.7967 13.8751 37.5102C11.5886 35.2237 10.0314 32.3105 9.40058 29.139C8.76974 25.9675 9.09351 22.6802 10.331 19.6927C11.5684 16.7053 13.664 14.1518 16.3526 12.3553C19.0412 10.5589 22.2022 9.59998 25.4358 9.59998C29.7716 9.60134 33.9293 11.3243 36.9951 14.3901C40.0609 17.4559 41.7839 21.6137 41.7853 25.9494Z" fill="#D8F2FF"/>
<mask id="mask0_106_3839" style="mask-type:alpha" maskUnits="userSpaceOnUse" x="9" y="9" width="33" height="34">
<path d="M41.7853 25.9494C41.7853 29.183 40.8264 32.344 39.0299 35.0326C37.2334 37.7213 34.68 39.8168 31.6925 41.0543C28.705 42.2917 25.4177 42.6155 22.2462 41.9846C19.0748 41.3538 16.1616 39.7967 13.8751 37.5102C11.5886 35.2237 10.0314 32.3105 9.40058 29.139C8.76974 25.9675 9.09351 22.6802 10.331 19.6927C11.5684 16.7053 13.664 14.1518 16.3526 12.3553C19.0412 10.5589 22.2022 9.59998 25.4358 9.59998C29.7716 9.60134 33.9293 11.3243 36.9951 14.3901C40.0609 17.4559 41.7839 21.6137 41.7853 25.9494Z" fill="white"/>
</mask>
<g mask="url(#mask0_106_3839)">
<path d="M25.6859 17.6569C28.867 17.6569 31.4459 20.2358 31.4459 23.4169L31.4459 24.0511C32.0297 24.1491 32.4744 24.6568 32.4744 25.2683V26.7083C32.4744 27.3309 32.0135 27.8458 31.4144 27.9304C31.2019 29.9675 29.9275 31.6889 28.1545 32.5311L28.1544 34.4226H28.5659C32.6559 34.4226 35.9716 37.7383 35.9716 41.8283V42.7541H15.4001V41.8283C15.4001 37.7383 18.7158 34.4226 22.8059 34.4226H23.2173L23.2173 32.5312C21.4443 31.6889 20.1698 29.9676 19.9572 27.9304C19.3582 27.8458 18.8973 27.3309 18.8973 26.7083V25.2683C18.8973 24.6568 19.3421 24.1491 19.9259 24.0511L19.9259 23.4169C19.9259 20.2358 22.5047 17.6569 25.6859 17.6569Z" fill="#FBCDBE"/>
<path d="M20.6459 35.1784C20.6459 36.8531 22.9254 38.2106 25.7373 38.2106C28.5492 38.2106 30.8287 36.8531 30.8287 35.1784C30.8287 35.0383 30.8128 34.9004 30.7819 34.7653C33.7894 35.7071 35.9716 38.5156 35.9716 41.8337V42.7541H15.4001V41.8337C15.4001 38.4749 17.6361 35.6384 20.7008 34.7314C20.6646 34.8774 20.6459 35.0266 20.6459 35.1784Z" fill="#401B60"/>
<path d="M20.6459 35.1784C20.6459 36.8531 22.9254 38.2106 25.7373 38.2106C28.5492 38.2106 30.8287 36.8531 30.8287 35.1784C30.8287 35.0383 30.8128 34.9004 30.7819 34.7653C33.7894 35.7071 35.9716 38.5156 35.9716 41.8337V42.7541H15.4001V41.8337C15.4001 38.4749 17.6361 35.6384 20.7008 34.7314C20.6646 34.8774 20.6459 35.0266 20.6459 35.1784Z" fill="#121120"/>
<path opacity="0.24" d="M23.1143 29.3424C23.2593 30.3322 24.3549 31.1312 25.6857 31.1312C27.0196 31.1312 28.1179 30.3272 28.2571 29.253C28.2675 29.2119 28.234 29.0741 28.0335 29.0741C25.9776 29.0741 24.4246 29.0741 23.3379 29.0741C23.1537 29.0741 23.1009 29.2017 23.1143 29.3424Z" fill="#401B60"/>
<path opacity="0.24" fill-rule="evenodd" clip-rule="evenodd" d="M24.4514 27.3255C24.4514 27.78 25.004 28.1484 25.6857 28.1484C26.3674 28.1484 26.92 27.78 26.92 27.3255" fill="#401B60"/>
<path d="M23.0112 26.0912C23.352 26.0912 23.6283 25.8149 23.6283 25.4741C23.6283 25.1332 23.352 24.8569 23.0112 24.8569C22.6703 24.8569 22.394 25.1332 22.394 25.4741C22.394 25.8149 22.6703 26.0912 23.0112 26.0912Z" fill="#401B60"/>
<path d="M28.3598 26.0912C28.7007 26.0912 28.977 25.8149 28.977 25.4741C28.977 25.1332 28.7007 24.8569 28.3598 24.8569C28.019 24.8569 27.7427 25.1332 27.7427 25.4741C27.7427 25.8149 28.019 26.0912 28.3598 26.0912Z" fill="#401B60"/>
<path d="M21.5336 24.1532C21.9362 23.5866 23.0402 23.2689 23.9911 23.5024C24.1014 23.5295 24.2129 23.462 24.2399 23.3517C24.267 23.2414 24.1996 23.13 24.0892 23.1029C22.9849 22.8317 21.7066 23.1996 21.1982 23.9149C21.1324 24.0075 21.1541 24.1359 21.2467 24.2018C21.3393 24.2676 21.4678 24.2458 21.5336 24.1532Z" fill="#401B60"/>
<path d="M29.838 24.1532C29.4353 23.5866 28.3314 23.2689 27.3805 23.5024C27.2701 23.5295 27.1587 23.462 27.1316 23.3517C27.1045 23.2414 27.172 23.13 27.2823 23.1029C28.3867 22.8317 29.665 23.1996 30.1734 23.9149C30.2392 24.0075 30.2175 24.1359 30.1249 24.2018C30.0323 24.2676 29.9038 24.2458 29.838 24.1532Z" fill="#401B60"/>
<path d="M25.6859 16.1141C29.5487 16.1141 32.6802 19.2456 32.6802 23.1084L32.6802 26.2717C32.7702 27.2799 32.8544 27.9862 32.9328 28.3906C33.0744 29.1213 33.5185 28.8803 33.5185 29.9196C33.5185 30.959 33.0733 31.3082 33.0713 32.2324C33.0694 33.1566 34.6551 33.8916 34.6551 35.0648C34.6551 36.238 33.9274 41.7745 26.671 41.7745C25.1209 41.7745 23.8005 41.3335 22.7098 40.4515C22.7802 41.119 22.8464 41.8866 22.9087 42.7541H18.0744C18.1703 40.3091 17.3252 38.9419 17.3252 36.2171C17.3252 33.4924 18.7279 29.5295 18.6916 28.5598C18.6937 28.4993 18.6958 28.4276 18.698 28.3446C18.6937 28.2454 18.6916 28.1457 18.6916 28.0456V23.1084C18.6916 22.6999 18.7266 22.2996 18.7938 21.9103C18.7942 21.8984 18.7943 21.8863 18.7944 21.8741L18.7987 21.8821C19.3785 18.604 22.2414 16.1141 25.6859 16.1141ZM25.7373 19.4056H25.6344C22.5385 19.4056 20.0287 21.9153 20.0287 25.0113V27.377C20.0287 30.4729 22.5385 32.9827 25.6344 32.9827H25.7373C28.8332 32.9827 31.343 30.4729 31.343 27.377V25.0113C31.343 21.9153 28.8332 19.4056 25.7373 19.4056Z" fill="#121120"/>
<path fill-rule="evenodd" clip-rule="evenodd" d="M25.6857 17.2455C29.2077 17.2455 32.0629 20.0776 32.0629 23.5712C32.0629 23.9738 32.025 24.3676 31.9525 24.7493C31.7891 21.4297 29.0459 18.7883 25.6857 18.7883C22.3256 18.7883 19.5824 21.4297 19.4191 24.7493C19.3465 24.3676 19.3086 23.9738 19.3086 23.5712C19.3086 20.0776 22.1637 17.2455 25.6857 17.2455Z" fill="#401B60"/>
<path opacity="0.9" fill-rule="evenodd" clip-rule="evenodd" d="M32.4392 35.5015C32.4539 35.5344 32.4674 35.5679 32.4799 35.6021C32.9455 36.8813 31.6491 38.5275 29.5843 39.279C27.5195 40.0306 25.4683 39.6028 25.0027 38.3235C24.9902 38.2894 24.9791 38.2549 24.9691 38.2202C25.8118 38.8017 27.4775 38.8294 29.1933 38.2048C30.9061 37.5814 32.1629 36.4923 32.4377 35.5066L32.4392 35.5015ZM31.245 33.9232C31.252 33.9492 31.2579 33.9754 31.2626 34.002C31.4384 34.9992 29.9012 36.1038 27.8291 36.4692C25.757 36.8345 23.9347 36.3223 23.7589 35.3251C23.7542 35.2985 23.7507 35.2719 23.7484 35.2451C24.4156 35.7578 25.9596 35.9354 27.6814 35.6318C29.4003 35.3287 30.7886 34.6356 31.2425 33.9269L31.245 33.9232ZM31.4455 25.834V28.1997C31.4455 31.2957 28.9358 33.8054 25.8398 33.8054H25.5312C22.4353 33.8054 19.9255 31.2957 19.9255 28.1997V25.834C19.9255 25.4536 19.9634 25.0821 20.0356 24.723C20.0308 24.8185 20.0284 24.9145 20.0284 25.0111V27.3769C20.0284 30.4728 22.5382 32.9826 25.6341 32.9826H25.737C28.8329 32.9826 31.3427 30.4728 31.3427 27.3769V25.0111C31.3427 24.9145 31.3402 24.8185 31.3354 24.7231C31.4076 25.0821 31.4455 25.4536 31.4455 25.834Z" fill="#401B60"/>
</g>
<path d="M121.31 59.5406C121.31 63.1187 120.178 66.6051 118.076 69.5008C115.974 72.3964 113.01 74.5529 109.608 75.6616C109.506 75.694 109.404 75.7263 109.301 75.7572C108.861 75.8928 108.414 76.0083 107.959 76.1069C107.136 76.2854 106.301 76.4013 105.461 76.4536C105.096 76.4783 104.729 76.4906 104.36 76.4906C102.451 76.4925 100.556 76.1716 98.7552 75.5414C98.7029 75.5229 98.6505 75.5045 98.5996 75.486C95.6813 74.432 93.1082 72.5972 91.1608 70.1815C89.2133 67.7659 87.9663 64.8621 87.5555 61.7866C87.1447 58.7111 87.5859 55.5818 88.8311 52.7397C90.0762 49.8976 92.0775 47.4519 94.6169 45.6689C97.1564 43.8859 100.136 42.834 103.232 42.628C106.328 42.422 109.422 43.0697 112.175 44.5006C114.928 45.9314 117.236 48.0905 118.847 50.7425C120.457 53.3945 121.309 56.4378 121.31 59.5406Z" fill="#919EAB" fill-opacity="0.24"/>
<path d="M120.708 59.54C120.708 62.9913 119.617 66.3542 117.589 69.1473C115.562 71.9403 112.703 74.0204 109.421 75.0898C109.323 75.121 109.225 75.1522 109.126 75.182C108.7 75.3128 108.269 75.4242 107.831 75.5194C107.037 75.6915 106.232 75.8033 105.422 75.8538C105.069 75.8776 104.715 75.8895 104.359 75.8895C102.518 75.8913 100.691 75.5817 98.9532 74.9739C98.9027 74.956 98.8522 74.9382 98.8031 74.9204C95.9882 73.9037 93.5063 72.1339 91.6278 69.8039C89.7494 67.4739 88.5465 64.673 88.1503 61.7064C87.754 58.7398 88.1796 55.7214 89.3807 52.9801C90.5817 50.2387 92.5121 47.8796 94.9615 46.1598C97.411 44.4399 100.285 43.4254 103.272 43.2267C106.258 43.028 109.242 43.6527 111.897 45.0329C114.553 46.413 116.779 48.4956 118.333 51.0536C119.886 53.6117 120.708 56.5471 120.708 59.54Z" fill="#D8F2FF"/>
<mask id="mask1_106_3839" style="mask-type:alpha" maskUnits="userSpaceOnUse" x="88" y="43" width="33" height="33">
<path d="M120.708 59.54C120.708 62.9913 119.617 66.3542 117.589 69.1473C115.562 71.9403 112.703 74.0204 109.421 75.0898C109.323 75.121 109.225 75.1522 109.126 75.182C108.7 75.3128 108.269 75.4242 107.831 75.5194C107.037 75.6915 106.232 75.8033 105.422 75.8538C105.069 75.8776 104.715 75.8895 104.359 75.8895C102.518 75.8913 100.691 75.5817 98.9532 74.9739C98.9027 74.956 98.8522 74.9382 98.8031 74.9204C95.9882 73.9037 93.5063 72.1339 91.6278 69.8039C89.7494 67.4739 88.5465 64.673 88.1503 61.7064C87.754 58.7398 88.1796 55.7214 89.3807 52.9801C90.5817 50.2387 92.5121 47.8796 94.9615 46.1598C97.411 44.4399 100.285 43.4254 103.272 43.2267C106.258 43.028 109.242 43.6527 111.897 45.0329C114.553 46.413 116.779 48.4956 118.333 51.0536C119.886 53.6117 120.708 56.5471 120.708 59.54Z" fill="white"/>
</mask>
<g mask="url(#mask1_106_3839)">
<path d="M104.131 51.2569C107.313 51.2569 109.891 53.8357 109.891 57.0169L109.891 57.6511C110.475 57.7491 110.92 58.2568 110.92 58.8683V60.3083C110.92 60.9309 110.459 61.4458 109.86 61.5304C109.647 63.5675 108.373 65.2888 106.6 66.1311L106.6 68.0226H107.011C111.101 68.0226 114.417 71.3383 114.417 75.4283V76.354H93.8457V75.4283C93.8457 71.3383 97.1614 68.0226 101.251 68.0226H101.663L101.663 66.1312C99.8899 65.2889 98.6154 63.5675 98.4028 61.5304C97.8037 61.4458 97.3428 60.9309 97.3428 60.3083V58.8683C97.3428 58.2567 97.7877 57.749 98.3714 57.6511L98.3714 57.0169C98.3714 53.8357 100.95 51.2569 104.131 51.2569Z" fill="#FBCDBE"/>
<path d="M107.011 68.0279C111.101 68.0279 114.417 71.3435 114.417 75.4336V76.354H93.8457V75.4336C93.8457 71.3435 97.1614 68.0279 101.251 68.0279L101.374 68.0279C101.361 68.1291 101.354 68.232 101.354 68.3365C101.354 69.7566 102.598 70.9079 104.131 70.9079C105.665 70.9079 106.909 69.7566 106.909 68.3365C106.909 68.232 106.902 68.1291 106.889 68.0279L107.011 68.0279Z" fill="#D8F2FF"/>
<path fill-rule="evenodd" clip-rule="evenodd" d="M100.428 72.0855C100.428 73.6499 100.63 75.1117 100.98 76.3542L93.8455 76.3541V75.4337C93.8455 71.4544 96.9839 68.2082 100.92 68.0352C100.607 69.2292 100.428 70.6118 100.428 72.0855ZM114.417 75.4337V76.3541L107.385 76.3542C107.735 75.1117 107.937 73.6499 107.937 72.0855C107.937 70.614 107.758 69.2334 107.446 68.0405C111.334 68.2657 114.417 71.4896 114.417 75.4337Z" fill="#121120"/>
<path fill-rule="evenodd" clip-rule="evenodd" d="M109.171 73.8856L110.154 73.1484C110.302 73.0371 110.507 73.0389 110.653 73.1528L111.331 73.6798L109.171 73.8856Z" fill="#D8F2FF"/>
<path fill-rule="evenodd" clip-rule="evenodd" d="M100.943 67.9198C100.531 69.9084 100.703 72.7198 101.457 76.3541H99.8113L98.3713 72.6512L98.9885 71.7255L98.3713 71.1084L100.326 68.0227C100.534 67.9578 100.74 67.9235 100.943 67.9198Z" fill="#121120"/>
<path fill-rule="evenodd" clip-rule="evenodd" d="M107.32 67.9198C107.731 69.9084 107.56 72.7198 106.806 76.3541H108.451L109.891 72.6512L109.274 71.7255L109.891 71.1084L107.937 68.0227C107.729 67.9578 107.523 67.9235 107.32 67.9198Z" fill="#121120"/>
<path fill-rule="evenodd" clip-rule="evenodd" d="M106.6 67.2553C107.296 67.7281 107.731 68.3987 107.731 69.1425C107.731 69.9038 107.276 70.5884 106.55 71.0627L105.939 70.5813L105.468 70.6155L105.571 70.2913L105.563 70.2851C106.191 69.9618 106.6 69.4318 106.6 68.8328L106.6 67.2553ZM102.699 70.2851L102.691 70.2913L102.794 70.6155L102.323 70.5813L101.712 71.0627C101 70.5973 100.548 69.9295 100.532 69.1854L100.531 69.1425C100.531 68.3987 100.966 67.728 101.663 67.2552L101.663 68.8328C101.663 69.4318 102.072 69.9618 102.699 70.2851Z" fill="#121120"/>
<path opacity="0.24" fill-rule="evenodd" clip-rule="evenodd" d="M102.691 62.8797C102.691 63.675 103.336 64.3197 104.131 64.3197C104.927 64.3197 105.571 63.675 105.571 62.8797" fill="#121120"/>
<path opacity="0.24" fill-rule="evenodd" clip-rule="evenodd" d="M102.897 60.9255C102.897 61.3799 103.45 61.7483 104.131 61.7483C104.813 61.7483 105.366 61.3799 105.366 60.9255" fill="#121120"/>
<path fill-rule="evenodd" clip-rule="evenodd" d="M100.033 59.6452C100.223 60.0359 100.651 60.3083 101.148 60.3083C101.643 60.3083 102.07 60.0379 102.261 59.6493C102.317 59.5339 102.237 59.4395 102.155 59.5095C101.903 59.7262 101.545 59.8616 101.148 59.8616C100.763 59.8616 100.415 59.7345 100.165 59.5296C100.073 59.4546 99.9778 59.5309 100.033 59.6452Z" fill="#121120"/>
<path fill-rule="evenodd" clip-rule="evenodd" d="M105.999 59.6452C106.189 60.0359 106.617 60.3083 107.114 60.3083C107.609 60.3083 108.036 60.0379 108.227 59.6493C108.283 59.5339 108.203 59.4395 108.121 59.5095C107.869 59.7262 107.511 59.8616 107.114 59.8616C106.729 59.8616 106.381 59.7345 106.131 59.5296C106.039 59.4546 105.944 59.5309 105.999 59.6452Z" fill="#121120"/>
<path d="M99.9791 57.7533C100.382 57.1867 101.486 56.8689 102.437 57.1025C102.547 57.1296 102.658 57.0621 102.686 56.9517C102.713 56.8414 102.645 56.73 102.535 56.7029C101.43 56.4317 100.152 56.7996 99.6438 57.5149C99.5779 57.6076 99.5997 57.736 99.6923 57.8018C99.7849 57.8676 99.9133 57.8459 99.9791 57.7533Z" fill="#121120"/>
<path d="M108.284 57.7533C107.881 57.1867 106.777 56.8689 105.826 57.1025C105.716 57.1296 105.604 57.0621 105.577 56.9517C105.55 56.8414 105.618 56.73 105.728 56.7029C106.832 56.4317 108.111 56.7996 108.619 57.5149C108.685 57.6076 108.663 57.736 108.57 57.8018C108.478 57.8676 108.349 57.8459 108.284 57.7533Z" fill="#121120"/>
<path d="M104.183 64.6119C103.013 64.6508 102.491 65.2167 102.098 64.6416C101.803 64.2099 101.926 63.4839 102.202 63.0754C102.594 62.4941 103.126 62.7753 103.721 62.7089C103.883 62.6909 104.045 62.6455 104.183 62.5711C104.32 62.6455 104.482 62.6909 104.644 62.7089C105.239 62.7753 105.771 62.4941 106.163 63.0754C106.439 63.4839 106.562 64.2099 106.267 64.6416C105.874 65.2167 105.353 64.573 104.183 64.6119ZM109.863 57.634C109.514 59.0817 109.355 60.5586 109.102 62.023C109.05 62.3283 108.992 62.6324 108.931 62.9362C108.918 63 108.905 63.2369 108.843 63.2669C108.655 63.3578 108.272 62.8742 108.169 62.765C107.912 62.4908 107.656 62.2141 107.343 61.9989C106.709 61.5642 105.967 61.3071 105.195 61.2461C104.872 61.2205 104.436 61.2651 104.131 61.451C103.827 61.2651 103.39 61.2205 103.067 61.2461C102.295 61.3071 101.553 61.5642 100.92 61.9989C100.606 62.2141 100.351 62.4908 100.093 62.765C99.9909 62.8742 99.6075 63.3578 99.4194 63.2669C99.3573 63.2369 99.3446 63 99.3318 62.9362C99.2706 62.6324 99.2131 62.3283 99.1605 62.023C98.9082 60.5586 98.7482 59.0817 98.4002 57.634C98.2989 57.634 98.2101 59.5623 98.1988 59.742C98.1528 60.4717 98.0991 61.1852 98.1677 61.9155C98.286 63.1754 98.4094 64.7552 99.3579 65.7173C100.215 66.5866 101.459 66.7683 102.533 67.3171C102.671 67.3877 102.854 67.475 103.052 67.5464C103.26 67.7072 103.673 67.8168 104.149 67.8168C104.648 67.8168 105.078 67.6962 105.275 67.5224C105.448 67.4561 105.607 67.38 105.73 67.3171C106.803 66.7682 108.048 66.5866 108.905 65.7173C109.853 64.7552 109.977 63.1754 110.095 61.9155C110.164 61.1852 110.11 60.4717 110.064 59.742C110.053 59.5623 109.964 57.634 109.863 57.634Z" fill="#121120"/>
<path fill-rule="evenodd" clip-rule="evenodd" d="M104.131 53.4168C107.483 53.4168 110.2 54.9365 110.2 56.8111C110.2 57.0764 110.145 57.3347 110.042 57.5825C109.418 56.0795 107.008 54.9597 104.131 54.9597C101.254 54.9597 98.8446 56.0796 98.2202 57.5825C98.1172 57.3348 98.0627 57.0765 98.0627 56.8111C98.0627 54.9365 100.78 53.4168 104.131 53.4168Z" fill="#401B60"/>
<path d="M104.337 47.8627C107.408 47.8627 112.763 52.4037 112.771 57.256C112.776 59.8766 111.782 61.4769 109.789 62.057C110.418 56.3084 106.539 55.0024 104.128 53.6038C101.716 55.0024 97.843 56.3083 98.4743 62.057C96.4812 61.5427 95.4869 59.9423 95.4915 57.256C95.4997 52.4037 100.848 47.8627 103.926 47.8627C103.994 47.8627 104.063 47.8658 104.131 47.8718C104.199 47.8658 104.268 47.8627 104.337 47.8627Z" fill="#121120"/>
</g>
<path d="M7.00001 93.8744C6.99706 96.1053 7.43589 98.3148 8.29119 100.375C9.14648 102.436 10.4013 104.307 11.9833 105.88C12.1159 106.011 12.2514 106.142 12.3885 106.269C13.2146 107.041 14.1159 107.728 15.079 108.32C15.2639 108.434 15.4488 108.544 15.6384 108.65C16.6123 109.199 17.6385 109.65 18.7017 109.995C18.885 110.055 19.0715 110.112 19.2579 110.165C22.6376 111.134 26.2345 111.033 29.5543 109.875C29.619 109.852 29.6837 109.829 29.7469 109.806C32.6612 108.746 35.2288 106.906 37.1702 104.488C39.1116 102.07 40.3524 99.1652 40.7576 96.0906C41.1628 93.0161 40.7168 89.8893 39.4681 87.0506C38.2195 84.2119 36.2161 81.7702 33.676 79.9911C31.1359 78.2121 28.1564 77.164 25.062 76.9608C21.9675 76.7576 18.8766 77.4073 16.1257 78.8389C13.3748 80.2706 11.0693 82.4295 9.46029 85.0805C7.85125 87.7316 7.00028 90.7732 7.00001 93.8744Z" fill="#919EAB" fill-opacity="0.24"/>
<path d="M7.60011 93.8738C7.59726 96.0258 8.02054 98.1569 8.84553 100.144C9.67052 102.132 10.8809 103.936 12.4068 105.454C12.5347 105.58 12.6655 105.706 12.7977 105.83C13.5945 106.574 14.4639 107.237 15.3929 107.808C15.5712 107.918 15.7496 108.024 15.9324 108.126C16.8718 108.656 17.8616 109.09 18.8871 109.424C19.064 109.482 19.2438 109.537 19.4237 109.587C22.6836 110.522 26.1531 110.424 29.3552 109.308C29.4177 109.285 29.4801 109.263 29.541 109.241C32.3521 108.218 34.8287 106.444 36.7013 104.111C38.5739 101.779 39.7708 98.9772 40.1616 96.0116C40.5524 93.0459 40.1222 90.0299 38.9178 87.2918C37.7134 84.5538 35.781 82.1985 33.3309 80.4825C30.8808 78.7665 28.0069 77.7555 25.0221 77.5595C22.0372 77.3636 19.0558 77.9902 16.4024 79.3711C13.749 80.7521 11.5252 82.8345 9.97321 85.3916C8.42119 87.9487 7.60037 90.8826 7.60011 93.8738Z" fill="#D8F2FF"/>
<mask id="mask2_106_3839" style="mask-type:alpha" maskUnits="userSpaceOnUse" x="7" y="77" width="34" height="34">
<path d="M7.60011 93.8738C7.59726 96.0258 8.02054 98.1569 8.84553 100.144C9.67052 102.132 10.8809 103.936 12.4068 105.454C12.5347 105.58 12.6655 105.706 12.7977 105.83C13.5945 106.574 14.4639 107.237 15.3929 107.808C15.5712 107.918 15.7496 108.024 15.9324 108.126C16.8718 108.656 17.8616 109.09 18.8871 109.424C19.064 109.482 19.2438 109.537 19.4237 109.587C22.6836 110.522 26.1531 110.424 29.3552 109.308C29.4177 109.285 29.4801 109.263 29.541 109.241C32.3521 108.218 34.8287 106.444 36.7013 104.111C38.5739 101.779 39.7708 98.9772 40.1616 96.0116C40.5524 93.0459 40.1222 90.0299 38.9178 87.2918C37.7134 84.5538 35.781 82.1985 33.3309 80.4825C30.8808 78.7665 28.0069 77.7555 25.0221 77.5595C22.0372 77.3636 19.0558 77.9902 16.4024 79.3711C13.749 80.7521 11.5252 82.8345 9.97321 85.3916C8.42119 87.9487 7.60037 90.8826 7.60011 93.8738Z" fill="white"/>
</mask>
<g mask="url(#mask2_106_3839)">
<path d="M24.1773 85.9029C27.3585 85.9029 29.9373 88.4817 29.9373 91.6629L29.9374 92.2971C30.5211 92.3951 30.9659 92.9028 30.9659 93.5143V94.9543C30.9659 95.5769 30.505 96.0917 29.9058 96.1764C29.6933 98.2135 28.4189 99.9348 26.646 100.777L26.6459 102.669H27.0573C31.1474 102.669 34.463 105.984 34.463 110.074V111H13.8916V110.074C13.8916 105.984 17.2073 102.669 21.2973 102.669H21.7087L21.7087 100.777C19.9357 99.9349 18.6613 98.2135 18.4487 96.1764C17.8496 96.0917 17.3887 95.5769 17.3887 94.9543V93.5143C17.3887 92.9027 17.8336 92.395 18.4173 92.2971L18.4173 91.6629C18.4173 88.4817 20.9962 85.9029 24.1773 85.9029Z" fill="#FBCDBE"/>
<path d="M19.1373 103.424C19.1373 105.099 21.4168 106.457 24.2287 106.457C27.0407 106.457 29.3202 105.099 29.3202 103.424C29.3202 103.284 29.3042 103.146 29.2733 103.011C32.2808 103.953 34.463 106.762 34.463 110.08V111H13.8916V110.08C13.8916 106.721 16.1276 103.884 19.1922 102.977C19.1561 103.123 19.1373 103.273 19.1373 103.424Z" fill="#121120"/>
<path opacity="0.24" d="M22.2352 97.539C22.344 98.5152 23.172 99.2744 24.1773 99.2744C25.1858 99.2744 26.0158 98.5106 26.1205 97.5299C26.1289 97.451 26.0408 97.3201 25.9303 97.3201C24.3984 97.3201 23.2247 97.3201 22.4377 97.3201C22.3266 97.3201 22.2243 97.4413 22.2352 97.539Z" fill="#121120"/>
<path opacity="0.24" fill-rule="evenodd" clip-rule="evenodd" d="M22.9429 95.5714C22.9429 96.0259 23.4955 96.3943 24.1772 96.3943C24.8588 96.3943 25.4114 96.0259 25.4114 95.5714" fill="#121120"/>
<path d="M21.5029 94.3372C21.8437 94.3372 22.12 94.0609 22.12 93.7201C22.12 93.3792 21.8437 93.1029 21.5029 93.1029C21.162 93.1029 20.8857 93.3792 20.8857 93.7201C20.8857 94.0609 21.162 94.3372 21.5029 94.3372Z" fill="#121120"/>
<path d="M26.8515 94.3372C27.1924 94.3372 27.4687 94.0609 27.4687 93.7201C27.4687 93.3792 27.1924 93.1029 26.8515 93.1029C26.5107 93.1029 26.2344 93.3792 26.2344 93.7201C26.2344 94.0609 26.5107 94.3372 26.8515 94.3372Z" fill="#121120"/>
<path d="M20.025 92.3992C20.4277 91.8326 21.5316 91.5149 22.4826 91.7484C22.5929 91.7755 22.7043 91.708 22.7314 91.5977C22.7585 91.4873 22.691 91.3759 22.5807 91.3488C21.4764 91.0776 20.198 91.4456 19.6897 92.1609C19.6238 92.2535 19.6456 92.3819 19.7382 92.4477C19.8308 92.5135 19.9592 92.4918 20.025 92.3992Z" fill="#121120"/>
<path d="M28.3295 92.3992C27.9268 91.8326 26.8228 91.5149 25.8719 91.7484C25.7616 91.7755 25.6502 91.708 25.6231 91.5977C25.596 91.4873 25.6635 91.3759 25.7738 91.3488C26.8781 91.0776 28.1565 91.4456 28.6648 92.1609C28.7306 92.2535 28.7089 92.3819 28.6163 92.4477C28.5237 92.5135 28.3953 92.4918 28.3295 92.3992Z" fill="#121120"/>
<mask id="mask3_106_3839" style="mask-type:alpha" maskUnits="userSpaceOnUse" x="10" y="82" width="28" height="29">
<path d="M37.7544 82.2V111H34.4629V110.074C34.4629 105.984 31.1473 102.669 27.0572 102.669H26.6458L26.6459 100.777C28.449 99.9205 29.7365 98.1546 29.9158 96.0721C30.51 95.9831 30.9658 95.4705 30.9658 94.8514V93.5143C30.9658 92.9027 30.521 92.3951 29.9373 92.2971L29.9372 91.6629C29.9372 90.8456 29.767 90.0681 29.4602 89.3639C28.4391 87.6514 19.7865 87.7341 18.9017 89.3471C18.5902 90.0557 18.4172 90.8391 18.4172 91.6629L18.4173 92.2971C17.8335 92.395 17.3887 92.9027 17.3887 93.5143V94.8514C17.3887 95.4705 17.8444 95.9831 18.4387 96.0721C18.618 98.1547 19.9055 99.9205 21.7087 100.777L21.7087 102.669H21.2972C17.2481 102.669 13.9579 105.918 13.8925 109.952L13.8915 110.074V111H10.6001V82.2H37.7544Z" fill="white"/>
</mask>
<g mask="url(#mask3_106_3839)">
<path fill-rule="evenodd" clip-rule="evenodd" d="M23.2704 82.4058H25.1871C27.12 82.4058 28.7922 83.7512 29.206 85.6392L30.143 89.9143H18.3145L19.2515 85.6392C19.6653 83.7512 21.3375 82.4058 23.2704 82.4058Z" fill="#121120"/>
<path d="M24.1772 97.1143C31.1076 97.1143 36.7258 94.4664 36.7258 91.2C36.7258 87.9336 31.1076 85.2857 24.1772 85.2857C17.2468 85.2857 11.6287 87.9336 11.6287 91.2C11.6287 94.4664 17.2468 97.1143 24.1772 97.1143Z" fill="#121120"/>
<path d="M24.1772 93.2057C27.6992 93.2057 30.5543 92.0545 30.5543 90.6343C30.5543 89.2141 27.6992 88.0629 24.1772 88.0629C20.6552 88.0629 17.8 89.2141 17.8 90.6343C17.8 92.0545 20.6552 93.2057 24.1772 93.2057Z" fill="#401B60"/>
</g>
<path opacity="0.7" d="M23.325 93.7715C23.325 94.7694 22.4764 95.5788 21.0624 95.5788H20.7795C19.3655 95.5788 18.7998 94.7691 18.7998 93.7715C18.7998 92.7732 18.9319 91.9641 20.9116 91.9641H21.2132C23.1929 91.9641 23.325 92.7732 23.325 93.7715Z" fill="#121120"/>
<path opacity="0.7" d="M29.6575 93.7715C29.6575 94.7694 28.8092 95.5788 27.3949 95.5788H27.1121C25.698 95.5788 25.1323 94.7691 25.1323 93.7715C25.1323 92.7732 25.2644 91.9641 27.2441 91.9641H27.5457C29.5251 91.9641 29.6575 92.7732 29.6575 93.7715Z" fill="#121120"/>
<path d="M21.213 91.6628C23.44 91.6628 23.6263 92.7045 23.6263 93.7714C23.6263 95.0128 22.5721 95.88 21.0622 95.88H20.7793C19.3509 95.88 18.498 95.0917 18.498 93.7714C18.498 92.7045 18.6844 91.6628 20.9114 91.6628H21.213ZM21.213 92.265H20.9114C19.1374 92.265 19.1019 92.9035 19.1012 93.7211L19.1012 93.7714C19.1012 94.4585 19.3922 95.2775 20.7793 95.2775H21.0622C22.2169 95.2775 23.0232 94.6582 23.0232 93.7714L23.0232 93.6962C23.0232 93.6879 23.0231 93.6796 23.0231 93.6713L23.0228 93.6219C23.0167 92.8524 22.9146 92.265 21.213 92.265Z" fill="#121120"/>
<path d="M27.5457 91.6628C29.7727 91.6628 29.9591 92.7045 29.9591 93.7714C29.9591 95.0128 28.9049 95.88 27.395 95.88H27.1121C25.6836 95.88 24.8308 95.0917 24.8308 93.7714C24.8308 92.7045 25.0172 91.6628 27.2442 91.6628H27.5457ZM27.5457 92.265H27.2442C25.4701 92.265 25.4347 92.9035 25.4339 93.7211L25.4339 93.7714C25.4339 94.4585 25.7252 95.2775 27.1121 95.2775H27.395C28.5496 95.2775 29.356 94.6582 29.356 93.7714L29.3559 93.6962C29.3559 93.6879 29.3559 93.6796 29.3559 93.6713L29.3556 93.6219C29.3495 92.8524 29.2474 92.265 27.5457 92.265Z" fill="#121120"/>
<path d="M17.896 92.2653C17.9666 92.1948 18.7386 91.6628 20.9116 91.6628C22.7336 91.6628 23.1193 91.8562 23.7031 92.1484L23.7459 92.17C23.7865 92.1846 23.994 92.2568 24.2368 92.2647C24.458 92.255 24.6472 92.1937 24.7025 92.174C25.3689 91.8426 26.0212 91.6628 27.5459 91.6628C29.7189 91.6628 30.4909 92.1948 30.5615 92.2653C30.7283 92.2653 30.8631 92.3999 30.8631 92.5665V92.8677C30.8631 93.0343 30.7283 93.169 30.5615 93.169C30.5615 93.169 29.9584 93.169 29.9584 93.4702C29.9584 93.7714 29.6568 93.0343 29.6568 92.8677V92.5743C29.289 92.4304 28.6307 92.2653 27.5459 92.2653C26.3373 92.2653 25.7354 92.3816 25.219 92.5993L25.2248 92.6135L24.9681 92.7171L25.2246 92.8208L24.9983 93.3793L24.7187 93.2662C24.6938 93.2561 24.6399 93.238 24.5652 93.2192C24.357 93.1666 24.1429 93.1507 23.9536 93.1904C23.8842 93.205 23.8197 93.2269 23.7606 93.2564L23.4909 93.3912L23.221 92.8524L23.4907 92.7176L23.4914 92.7173L23.233 92.6129L23.2413 92.5926C22.796 92.3803 22.3854 92.2653 20.9116 92.2653C19.8269 92.2653 19.1686 92.4303 18.8007 92.5742V92.8677C18.8007 93.0343 18.4992 93.7714 18.4992 93.4702C18.4992 93.169 17.896 93.169 17.896 93.169C17.7296 93.169 17.5945 93.0343 17.5945 92.8677V92.5665C17.5945 92.3999 17.7296 92.2653 17.896 92.2653Z" fill="#121120"/>
</g>
</svg>
