<svg width="129" height="120" viewBox="0 0 129 120" fill="none" xmlns="http://www.w3.org/2000/svg">
<path d="M33.9 20.95C33.9 24.3024 32.9059 27.5795 31.0434 30.3669C29.1809 33.1543 26.5337 35.3268 23.4365 36.6098C20.3393 37.8927 16.9312 38.2283 13.6432 37.5743C10.3552 36.9203 7.33505 35.306 4.96455 32.9355C2.59405 30.565 0.979717 27.5448 0.325697 24.2568C-0.328322 20.9688 0.00734366 17.5607 1.29025 14.4635C2.57315 11.3663 4.74568 8.71908 7.53309 6.85659C10.3205 4.9941 13.5976 4 16.95 4C21.445 4.00142 25.7555 5.78767 28.9339 8.96611C32.1123 12.1445 33.8986 16.455 33.9 20.95Z" fill="#919EAB" fill-opacity="0.24"/>
<path d="M33.2989 20.9494C33.2989 24.183 32.3401 27.344 30.5436 30.0326C28.7471 32.7213 26.1936 34.8168 23.2062 36.0543C20.2187 37.2917 16.9314 37.6155 13.7599 36.9846C10.5884 36.3538 7.67525 34.7967 5.38874 32.5102C3.10223 30.2237 1.5451 27.3105 0.914255 24.139C0.283409 20.9675 0.607181 17.6802 1.84463 14.6927C3.08208 11.7053 5.17762 9.15184 7.86627 7.35535C10.5549 5.55885 13.7159 4.59998 16.9495 4.59998C21.2852 4.60134 25.443 6.32431 28.5088 9.39012C31.5746 12.4559 33.2976 16.6137 33.2989 20.9494Z" fill="#D8F2FF"/>
<mask id="mask0_106_4099" style="mask-type:alpha" maskUnits="userSpaceOnUse" x="0" y="4" width="34" height="34">
<path d="M33.2989 20.9494C33.2989 24.183 32.3401 27.344 30.5436 30.0326C28.7471 32.7213 26.1936 34.8168 23.2062 36.0543C20.2187 37.2917 16.9314 37.6155 13.7599 36.9846C10.5884 36.3538 7.67525 34.7967 5.38874 32.5102C3.10223 30.2237 1.5451 27.3105 0.914255 24.139C0.283409 20.9675 0.607181 17.6802 1.84463 14.6927C3.08208 11.7053 5.17762 9.15184 7.86627 7.35535C10.5549 5.55885 13.7159 4.59998 16.9495 4.59998C21.2852 4.60134 25.443 6.32431 28.5088 9.39012C31.5746 12.4559 33.2976 16.6137 33.2989 20.9494Z" fill="white"/>
</mask>
<g mask="url(#mask0_106_4099)">
<path d="M17.1995 12.6569C20.3807 12.6569 22.9595 15.2358 22.9595 18.4169L22.9596 19.0511C23.5433 19.1491 23.9881 19.6568 23.9881 20.2683V21.7083C23.9881 22.3309 23.5272 22.8458 22.9281 22.9304C22.7155 24.9675 21.4411 26.6889 19.6682 27.5311L19.6681 29.4226H20.0795C24.1696 29.4226 27.4852 32.7383 27.4852 36.8283V37.7541H6.91382V36.8283C6.91382 32.7383 10.2295 29.4226 14.3195 29.4226H14.731L14.731 27.5312C12.958 26.6889 11.6835 24.9676 11.4709 22.9304C10.8718 22.8458 10.411 22.3309 10.411 21.7083V20.2683C10.411 19.6568 10.8558 19.1491 11.4396 19.0511L11.4395 18.4169C11.4395 15.2358 14.0184 12.6569 17.1995 12.6569Z" fill="#FBCDBE"/>
<path d="M12.1595 30.1784C12.1595 31.8531 14.439 33.2106 17.251 33.2106C20.0629 33.2106 22.3424 31.8531 22.3424 30.1784C22.3424 30.0383 22.3264 29.9004 22.2955 29.7653C25.3031 30.7071 27.4852 33.5156 27.4852 36.8337V37.7541H6.91382V36.8337C6.91382 33.4749 9.1498 30.6384 12.2144 29.7314C12.1783 29.8774 12.1595 30.0266 12.1595 30.1784Z" fill="#401B60"/>
<path d="M12.1595 30.1784C12.1595 31.8531 14.439 33.2106 17.251 33.2106C20.0629 33.2106 22.3424 31.8531 22.3424 30.1784C22.3424 30.0383 22.3264 29.9004 22.2955 29.7653C25.3031 30.7071 27.4852 33.5156 27.4852 36.8337V37.7541H6.91382V36.8337C6.91382 33.4749 9.1498 30.6384 12.2144 29.7314C12.1783 29.8774 12.1595 30.0266 12.1595 30.1784Z" fill="#121120"/>
<path opacity="0.24" d="M14.6279 24.3424C14.773 25.3322 15.8686 26.1312 17.1994 26.1312C18.5332 26.1312 19.6315 25.3272 19.7708 24.253C19.7812 24.2119 19.7477 24.0741 19.5472 24.0741C17.4913 24.0741 15.9383 24.0741 14.8515 24.0741C14.6674 24.0741 14.6146 24.2017 14.6279 24.3424Z" fill="#401B60"/>
<path opacity="0.24" fill-rule="evenodd" clip-rule="evenodd" d="M15.9651 22.3255C15.9651 22.78 16.5177 23.1484 17.1994 23.1484C17.8811 23.1484 18.4337 22.78 18.4337 22.3255" fill="#401B60"/>
<path d="M14.5249 21.0912C14.8657 21.0912 15.142 20.8149 15.142 20.4741C15.142 20.1332 14.8657 19.8569 14.5249 19.8569C14.184 19.8569 13.9077 20.1332 13.9077 20.4741C13.9077 20.8149 14.184 21.0912 14.5249 21.0912Z" fill="#401B60"/>
<path d="M19.8735 21.0912C20.2143 21.0912 20.4906 20.8149 20.4906 20.4741C20.4906 20.1332 20.2143 19.8569 19.8735 19.8569C19.5327 19.8569 19.2563 20.1332 19.2563 20.4741C19.2563 20.8149 19.5327 21.0912 19.8735 21.0912Z" fill="#401B60"/>
<path d="M13.0472 19.1532C13.4499 18.5866 14.5539 18.2689 15.5048 18.5024C15.6151 18.5295 15.7265 18.462 15.7536 18.3517C15.7807 18.2414 15.7132 18.13 15.6029 18.1029C14.4986 17.8317 13.2202 18.1996 12.7119 18.9149C12.6461 19.0075 12.6678 19.1359 12.7604 19.2018C12.853 19.2676 12.9814 19.2458 13.0472 19.1532Z" fill="#401B60"/>
<path d="M21.3517 19.1532C20.949 18.5866 19.8451 18.2689 18.8941 18.5024C18.7838 18.5295 18.6724 18.462 18.6453 18.3517C18.6182 18.2414 18.6857 18.13 18.796 18.1029C19.9004 17.8317 21.1787 18.1996 21.687 18.9149C21.7529 19.0075 21.7311 19.1359 21.6385 19.2018C21.5459 19.2676 21.4175 19.2458 21.3517 19.1532Z" fill="#401B60"/>
<path d="M17.1995 11.1141C21.0624 11.1141 24.1938 14.2456 24.1938 18.1084L24.1939 21.2717C24.2839 22.2799 24.3681 22.9862 24.4465 23.3906C24.5881 24.1213 25.0321 23.8803 25.0321 24.9196C25.0321 25.959 24.5869 26.3082 24.585 27.2324C24.5831 28.1566 26.1687 28.8916 26.1687 30.0648C26.1687 31.238 25.4411 36.7745 18.1847 36.7745C16.6345 36.7745 15.3141 36.3335 14.2235 35.4515C14.2938 36.119 14.3601 36.8866 14.4224 37.7541H9.58811C9.68402 35.3091 8.83887 33.9419 8.83887 31.2171C8.83887 28.4924 10.2415 24.5295 10.2053 23.5598C10.2073 23.4993 10.2095 23.4276 10.2117 23.3446C10.2074 23.2454 10.2053 23.1457 10.2053 23.0456V18.1084C10.2053 17.6999 10.2403 17.2996 10.3075 16.9103C10.3078 16.8984 10.308 16.8863 10.3081 16.8741L10.3124 16.8821C10.8922 13.604 13.7551 11.1141 17.1995 11.1141ZM17.251 14.4056H17.1481C14.0522 14.4056 11.5424 16.9153 11.5424 20.0113V22.377C11.5424 25.4729 14.0522 27.9827 17.1481 27.9827H17.251C20.3469 27.9827 22.8567 25.4729 22.8567 22.377V20.0113C22.8567 16.9153 20.3469 14.4056 17.251 14.4056Z" fill="#121120"/>
<path fill-rule="evenodd" clip-rule="evenodd" d="M17.1994 12.2455C20.7214 12.2455 23.5765 15.0776 23.5765 18.5712C23.5765 18.9738 23.5386 19.3676 23.4661 19.7493C23.3027 16.4297 20.5595 13.7883 17.1994 13.7883C13.8393 13.7883 11.0961 16.4297 10.9328 19.7493C10.8602 19.3676 10.8223 18.9738 10.8223 18.5712C10.8223 15.0776 13.6774 12.2455 17.1994 12.2455Z" fill="#401B60"/>
<path opacity="0.9" fill-rule="evenodd" clip-rule="evenodd" d="M23.9529 30.5015C23.9676 30.5344 23.9811 30.5679 23.9935 30.6021C24.4591 31.8813 23.1628 33.5275 21.098 34.279C19.0332 35.0306 16.9819 34.6028 16.5163 33.3235C16.5039 33.2894 16.4927 33.2549 16.4828 33.2202C17.3255 33.8017 18.9912 33.8294 20.707 33.2048C22.4198 32.5814 23.6766 31.4923 23.9514 30.5066L23.9529 30.5015ZM22.7587 28.9232C22.7657 28.9492 22.7715 28.9754 22.7762 29.002C22.9521 29.9992 21.4148 31.1038 19.3428 31.4692C17.2707 31.8345 15.4484 31.3223 15.2725 30.3251C15.2678 30.2985 15.2644 30.2719 15.2621 30.2451C15.9293 30.7578 17.4733 30.9354 19.1951 30.6318C20.914 30.3287 22.3023 29.6356 22.7562 28.9269L22.7587 28.9232ZM22.9592 20.834V23.1997C22.9592 26.2957 20.4494 28.8054 17.3535 28.8054H17.0449C13.949 28.8054 11.4392 26.2957 11.4392 23.1997V20.834C11.4392 20.4536 11.4771 20.0821 11.5493 19.723C11.5445 19.8185 11.5421 19.9145 11.5421 20.0111V22.3769C11.5421 25.4728 14.0518 27.9826 17.1478 27.9826H17.2506C20.3466 27.9826 22.8563 25.4728 22.8563 22.3769V20.0111C22.8563 19.9145 22.8539 19.8185 22.8491 19.7231C22.9213 20.0821 22.9592 20.4536 22.9592 20.834Z" fill="#401B60"/>
</g>
<path d="M33.5 22L97.5 50M101.5 73L43.5 90M18 82L12 37" stroke="#121120"/>
<path d="M128.31 59.5406C128.31 63.1187 127.178 66.6051 125.076 69.5008C122.974 72.3964 120.01 74.5529 116.608 75.6616C116.506 75.694 116.404 75.7263 116.301 75.7572C115.861 75.8928 115.414 76.0083 114.959 76.1069C114.136 76.2854 113.301 76.4013 112.461 76.4536C112.096 76.4783 111.729 76.4906 111.36 76.4906C109.451 76.4925 107.556 76.1716 105.755 75.5414C105.703 75.5229 105.65 75.5045 105.6 75.486C102.681 74.432 100.108 72.5972 98.1608 70.1815C96.2133 67.7659 94.9663 64.8621 94.5555 61.7866C94.1447 58.7111 94.5859 55.5818 95.8311 52.7397C97.0762 49.8976 99.0775 47.4519 101.617 45.6689C104.156 43.8859 107.136 42.834 110.232 42.628C113.328 42.422 116.422 43.0697 119.175 44.5006C121.928 45.9314 124.236 48.0905 125.847 50.7425C127.457 53.3945 128.309 56.4378 128.31 59.5406Z" fill="#919EAB" fill-opacity="0.24"/>
<path d="M127.708 59.54C127.708 62.9913 126.617 66.3542 124.589 69.1473C122.562 71.9403 119.703 74.0204 116.421 75.0898C116.323 75.121 116.225 75.1522 116.126 75.182C115.7 75.3128 115.269 75.4242 114.831 75.5194C114.037 75.6915 113.232 75.8033 112.422 75.8538C112.069 75.8776 111.715 75.8895 111.359 75.8895C109.518 75.8913 107.691 75.5817 105.953 74.9739C105.903 74.956 105.852 74.9382 105.803 74.9204C102.988 73.9037 100.506 72.1339 98.6278 69.8039C96.7494 67.4739 95.5465 64.673 95.1503 61.7064C94.754 58.7398 95.1796 55.7214 96.3807 52.9801C97.5817 50.2387 99.5121 47.8796 101.962 46.1598C104.411 44.4399 107.285 43.4254 110.272 43.2267C113.258 43.028 116.242 43.6527 118.897 45.0329C121.553 46.413 123.779 48.4956 125.333 51.0536C126.886 53.6117 127.708 56.5471 127.708 59.54Z" fill="#D8F2FF"/>
<mask id="mask1_106_4099" style="mask-type:alpha" maskUnits="userSpaceOnUse" x="95" y="43" width="33" height="33">
<path d="M127.708 59.54C127.708 62.9913 126.617 66.3542 124.589 69.1473C122.562 71.9403 119.703 74.0204 116.421 75.0898C116.323 75.121 116.225 75.1522 116.126 75.182C115.7 75.3128 115.269 75.4242 114.831 75.5194C114.037 75.6915 113.232 75.8033 112.422 75.8538C112.069 75.8776 111.715 75.8895 111.359 75.8895C109.518 75.8913 107.691 75.5817 105.953 74.9739C105.903 74.956 105.852 74.9382 105.803 74.9204C102.988 73.9037 100.506 72.1339 98.6278 69.8039C96.7494 67.4739 95.5465 64.673 95.1503 61.7064C94.754 58.7398 95.1796 55.7214 96.3807 52.9801C97.5817 50.2387 99.5121 47.8796 101.962 46.1598C104.411 44.4399 107.285 43.4254 110.272 43.2267C113.258 43.028 116.242 43.6527 118.897 45.0329C121.553 46.413 123.779 48.4956 125.333 51.0536C126.886 53.6117 127.708 56.5471 127.708 59.54Z" fill="white"/>
</mask>
<g mask="url(#mask1_106_4099)">
<path d="M111.131 51.2569C114.313 51.2569 116.891 53.8357 116.891 57.0169L116.891 57.6511C117.475 57.7491 117.92 58.2568 117.92 58.8683V60.3083C117.92 60.9309 117.459 61.4458 116.86 61.5304C116.647 63.5675 115.373 65.2888 113.6 66.1311L113.6 68.0226H114.011C118.101 68.0226 121.417 71.3383 121.417 75.4283V76.354H100.846V75.4283C100.846 71.3383 104.161 68.0226 108.251 68.0226H108.663L108.663 66.1312C106.89 65.2889 105.615 63.5675 105.403 61.5304C104.804 61.4458 104.343 60.9309 104.343 60.3083V58.8683C104.343 58.2567 104.788 57.749 105.371 57.6511L105.371 57.0169C105.371 53.8357 107.95 51.2569 111.131 51.2569Z" fill="#FBCDBE"/>
<path d="M114.011 68.0279C118.101 68.0279 121.417 71.3435 121.417 75.4336V76.354H100.846V75.4336C100.846 71.3435 104.161 68.0279 108.251 68.0279L108.374 68.0279C108.361 68.1291 108.354 68.232 108.354 68.3365C108.354 69.7566 109.598 70.9079 111.131 70.9079C112.665 70.9079 113.909 69.7566 113.909 68.3365C113.909 68.232 113.902 68.1291 113.889 68.0279L114.011 68.0279Z" fill="#D8F2FF"/>
<path fill-rule="evenodd" clip-rule="evenodd" d="M107.428 72.0855C107.428 73.6499 107.63 75.1117 107.98 76.3542L100.845 76.3541V75.4337C100.845 71.4544 103.984 68.2082 107.92 68.0352C107.607 69.2292 107.428 70.6118 107.428 72.0855ZM121.417 75.4337V76.3541L114.385 76.3542C114.735 75.1117 114.937 73.6499 114.937 72.0855C114.937 70.614 114.758 69.2334 114.446 68.0405C118.334 68.2657 121.417 71.4896 121.417 75.4337Z" fill="#121120"/>
<path fill-rule="evenodd" clip-rule="evenodd" d="M116.171 73.8856L117.154 73.1484C117.302 73.0371 117.507 73.0389 117.653 73.1528L118.331 73.6798L116.171 73.8856Z" fill="#D8F2FF"/>
<path fill-rule="evenodd" clip-rule="evenodd" d="M107.943 67.9198C107.531 69.9084 107.703 72.7198 108.457 76.3541H106.811L105.371 72.6512L105.988 71.7255L105.371 71.1084L107.326 68.0227C107.534 67.9578 107.74 67.9235 107.943 67.9198Z" fill="#121120"/>
<path fill-rule="evenodd" clip-rule="evenodd" d="M114.32 67.9198C114.731 69.9084 114.56 72.7198 113.806 76.3541H115.451L116.891 72.6512L116.274 71.7255L116.891 71.1084L114.937 68.0227C114.729 67.9578 114.523 67.9235 114.32 67.9198Z" fill="#121120"/>
<path fill-rule="evenodd" clip-rule="evenodd" d="M113.6 67.2553C114.296 67.7281 114.731 68.3987 114.731 69.1425C114.731 69.9038 114.276 70.5884 113.55 71.0627L112.939 70.5813L112.468 70.6155L112.571 70.2913L112.563 70.2851C113.191 69.9618 113.6 69.4318 113.6 68.8328L113.6 67.2553ZM109.699 70.2851L109.691 70.2913L109.794 70.6155L109.323 70.5813L108.712 71.0627C108 70.5973 107.548 69.9295 107.532 69.1854L107.531 69.1425C107.531 68.3987 107.966 67.728 108.663 67.2552L108.663 68.8328C108.663 69.4318 109.072 69.9618 109.699 70.2851Z" fill="#121120"/>
<path opacity="0.24" fill-rule="evenodd" clip-rule="evenodd" d="M109.691 62.8797C109.691 63.675 110.336 64.3197 111.131 64.3197C111.927 64.3197 112.571 63.675 112.571 62.8797" fill="#121120"/>
<path opacity="0.24" fill-rule="evenodd" clip-rule="evenodd" d="M109.897 60.9255C109.897 61.3799 110.45 61.7483 111.131 61.7483C111.813 61.7483 112.366 61.3799 112.366 60.9255" fill="#121120"/>
<path fill-rule="evenodd" clip-rule="evenodd" d="M107.033 59.6452C107.223 60.0359 107.651 60.3083 108.148 60.3083C108.643 60.3083 109.07 60.0379 109.261 59.6493C109.317 59.5339 109.237 59.4395 109.155 59.5095C108.903 59.7262 108.545 59.8616 108.148 59.8616C107.763 59.8616 107.415 59.7345 107.165 59.5296C107.073 59.4546 106.978 59.5309 107.033 59.6452Z" fill="#121120"/>
<path fill-rule="evenodd" clip-rule="evenodd" d="M112.999 59.6452C113.189 60.0359 113.617 60.3083 114.114 60.3083C114.609 60.3083 115.036 60.0379 115.227 59.6493C115.283 59.5339 115.203 59.4395 115.121 59.5095C114.869 59.7262 114.511 59.8616 114.114 59.8616C113.729 59.8616 113.381 59.7345 113.131 59.5296C113.039 59.4546 112.944 59.5309 112.999 59.6452Z" fill="#121120"/>
<path d="M106.979 57.7533C107.382 57.1867 108.486 56.8689 109.437 57.1025C109.547 57.1296 109.658 57.0621 109.686 56.9517C109.713 56.8414 109.645 56.73 109.535 56.7029C108.43 56.4317 107.152 56.7996 106.644 57.5149C106.578 57.6076 106.6 57.736 106.692 57.8018C106.785 57.8676 106.913 57.8459 106.979 57.7533Z" fill="#121120"/>
<path d="M115.284 57.7533C114.881 57.1867 113.777 56.8689 112.826 57.1025C112.716 57.1296 112.604 57.0621 112.577 56.9517C112.55 56.8414 112.618 56.73 112.728 56.7029C113.832 56.4317 115.111 56.7996 115.619 57.5149C115.685 57.6076 115.663 57.736 115.57 57.8018C115.478 57.8676 115.349 57.8459 115.284 57.7533Z" fill="#121120"/>
<path d="M111.183 64.6119C110.013 64.6508 109.491 65.2167 109.098 64.6416C108.803 64.2099 108.926 63.4839 109.202 63.0754C109.594 62.4941 110.126 62.7753 110.721 62.7089C110.883 62.6909 111.045 62.6455 111.183 62.5711C111.32 62.6455 111.482 62.6909 111.644 62.7089C112.239 62.7753 112.771 62.4941 113.163 63.0754C113.439 63.4839 113.562 64.2099 113.267 64.6416C112.874 65.2167 112.353 64.573 111.183 64.6119ZM116.863 57.634C116.514 59.0817 116.355 60.5586 116.102 62.023C116.05 62.3283 115.992 62.6324 115.931 62.9362C115.918 63 115.905 63.2369 115.843 63.2669C115.655 63.3578 115.272 62.8742 115.169 62.765C114.912 62.4908 114.656 62.2141 114.343 61.9989C113.709 61.5642 112.967 61.3071 112.195 61.2461C111.872 61.2205 111.436 61.2651 111.131 61.451C110.827 61.2651 110.39 61.2205 110.067 61.2461C109.295 61.3071 108.553 61.5642 107.92 61.9989C107.606 62.2141 107.351 62.4908 107.093 62.765C106.991 62.8742 106.607 63.3578 106.419 63.2669C106.357 63.2369 106.345 63 106.332 62.9362C106.271 62.6324 106.213 62.3283 106.16 62.023C105.908 60.5586 105.748 59.0817 105.4 57.634C105.299 57.634 105.21 59.5623 105.199 59.742C105.153 60.4717 105.099 61.1852 105.168 61.9155C105.286 63.1754 105.409 64.7552 106.358 65.7173C107.215 66.5866 108.459 66.7683 109.533 67.3171C109.671 67.3877 109.854 67.475 110.052 67.5464C110.26 67.7072 110.673 67.8168 111.149 67.8168C111.648 67.8168 112.078 67.6962 112.275 67.5224C112.448 67.4561 112.607 67.38 112.73 67.3171C113.803 66.7682 115.048 66.5866 115.905 65.7173C116.853 64.7552 116.977 63.1754 117.095 61.9155C117.164 61.1852 117.11 60.4717 117.064 59.742C117.053 59.5623 116.964 57.634 116.863 57.634Z" fill="#121120"/>
<path fill-rule="evenodd" clip-rule="evenodd" d="M111.131 53.4168C114.483 53.4168 117.2 54.9365 117.2 56.8111C117.2 57.0764 117.145 57.3347 117.042 57.5825C116.418 56.0795 114.008 54.9597 111.131 54.9597C108.254 54.9597 105.845 56.0796 105.22 57.5825C105.117 57.3348 105.063 57.0765 105.063 56.8111C105.063 54.9365 107.78 53.4168 111.131 53.4168Z" fill="#401B60"/>
<path d="M111.337 47.8627C114.408 47.8627 119.763 52.4037 119.771 57.256C119.776 59.8766 118.782 61.4769 116.789 62.057C117.418 56.3084 113.539 55.0024 111.128 53.6038C108.716 55.0024 104.843 56.3083 105.474 62.057C103.481 61.5427 102.487 59.9423 102.491 57.256C102.5 52.4037 107.848 47.8627 110.926 47.8627C110.994 47.8627 111.063 47.8658 111.131 47.8718C111.199 47.8658 111.268 47.8627 111.337 47.8627Z" fill="#121120"/>
</g>
<path d="M10 94.95C9.99706 97.181 10.4359 99.3904 11.2912 101.451C12.1465 103.511 13.4013 105.382 14.9833 106.955C15.1159 107.086 15.2514 107.217 15.3885 107.345C16.2146 108.117 17.1159 108.804 18.079 109.396C18.2639 109.51 18.4488 109.619 18.6384 109.726C19.6123 110.275 20.6385 110.725 21.7017 111.071C21.885 111.131 22.0715 111.188 22.2579 111.24C25.6376 112.21 29.2345 112.109 32.5543 110.951C32.619 110.928 32.6837 110.905 32.7469 110.881C35.6612 109.821 38.2288 107.982 40.1702 105.564C42.1116 103.145 43.3524 100.241 43.7576 97.1662C44.1628 94.0917 43.7168 90.9649 42.4681 88.1262C41.2195 85.2876 39.2161 82.8458 36.676 81.0668C34.1359 79.2877 31.1564 78.2396 28.062 78.0364C24.9675 77.8333 21.8766 78.4829 19.1257 79.9146C16.3748 81.3462 14.0693 83.5051 12.4603 86.1562C10.8513 88.8072 10.0003 91.8489 10 94.95Z" fill="#919EAB" fill-opacity="0.24"/>
<path d="M10.6001 94.9494C10.5973 97.1013 11.0205 99.2325 11.8455 101.22C12.6705 103.207 13.8809 105.012 15.4068 106.529C15.5347 106.656 15.6655 106.782 15.7977 106.905C16.5945 107.65 17.4639 108.312 18.3929 108.884C18.5712 108.994 18.7496 109.099 18.9324 109.202C19.8718 109.731 20.8616 110.166 21.8871 110.499C22.064 110.557 22.2438 110.612 22.4237 110.663C25.6836 111.598 29.1531 111.5 32.3552 110.383C32.4177 110.361 32.4801 110.339 32.541 110.316C35.3521 109.294 37.8287 107.52 39.7013 105.187C41.5739 102.854 42.7708 100.053 43.1616 97.0871C43.5524 94.1215 43.1222 91.1055 41.9178 88.3674C40.7134 85.6293 38.781 83.2741 36.3309 81.5581C33.8808 79.8421 31.0069 78.8311 28.0221 78.6351C25.0372 78.4391 22.0558 79.0657 19.4024 80.4467C16.749 81.8276 14.5252 83.91 12.9732 86.4671C11.4212 89.0243 10.6004 91.9581 10.6001 94.9494Z" fill="#D8F2FF"/>
<mask id="mask2_106_4099" style="mask-type:alpha" maskUnits="userSpaceOnUse" x="10" y="78" width="34" height="34">
<path d="M10.6001 94.9494C10.5973 97.1013 11.0205 99.2325 11.8455 101.22C12.6705 103.207 13.8809 105.012 15.4068 106.529C15.5347 106.656 15.6655 106.782 15.7977 106.905C16.5945 107.65 17.4639 108.312 18.3929 108.884C18.5712 108.994 18.7496 109.099 18.9324 109.202C19.8718 109.731 20.8616 110.166 21.8871 110.499C22.064 110.557 22.2438 110.612 22.4237 110.663C25.6836 111.598 29.1531 111.5 32.3552 110.383C32.4177 110.361 32.4801 110.339 32.541 110.316C35.3521 109.294 37.8287 107.52 39.7013 105.187C41.5739 102.854 42.7708 100.053 43.1616 97.0871C43.5524 94.1215 43.1222 91.1055 41.9178 88.3674C40.7134 85.6293 38.781 83.2741 36.3309 81.5581C33.8808 79.8421 31.0069 78.8311 28.0221 78.6351C25.0372 78.4391 22.0558 79.0657 19.4024 80.4467C16.749 81.8276 14.5252 83.91 12.9732 86.4671C11.4212 89.0243 10.6004 91.9581 10.6001 94.9494Z" fill="white"/>
</mask>
<g mask="url(#mask2_106_4099)">
<path d="M27.1773 86.9785C30.3585 86.9785 32.9373 89.5574 32.9373 92.7385L32.9374 93.3727C33.5211 93.4707 33.9659 93.9784 33.9659 94.5899V96.0299C33.9659 96.6525 33.505 97.1674 32.9058 97.252C32.6933 99.2891 31.4189 101.01 29.646 101.853L29.6459 103.744H30.0573C34.1474 103.744 37.463 107.06 37.463 111.15V112.076H16.8916V111.15C16.8916 107.06 20.2073 103.744 24.2973 103.744H24.7087L24.7087 101.853C22.9357 101.011 21.6613 99.2892 21.4487 97.252C20.8496 97.1674 20.3887 96.6525 20.3887 96.0299V94.5899C20.3887 93.9783 20.8336 93.4706 21.4173 93.3727L21.4173 92.7385C21.4173 89.5574 23.9962 86.9785 27.1773 86.9785Z" fill="#FBCDBE"/>
<path d="M22.1373 104.5C22.1373 106.175 24.4168 107.532 27.2287 107.532C30.0407 107.532 32.3202 106.175 32.3202 104.5C32.3202 104.36 32.3042 104.222 32.2733 104.087C35.2808 105.029 37.463 107.837 37.463 111.155V112.076H16.8916V111.155C16.8916 107.796 19.1276 104.96 22.1922 104.053C22.1561 104.199 22.1373 104.348 22.1373 104.5Z" fill="#121120"/>
<path opacity="0.24" d="M25.2352 98.6145C25.344 99.5908 26.172 100.35 27.1773 100.35C28.1858 100.35 29.0158 99.5861 29.1205 98.6055C29.1289 98.5265 29.0408 98.3956 28.9303 98.3956C27.3984 98.3956 26.2247 98.3956 25.4377 98.3956C25.3266 98.3956 25.2243 98.5168 25.2352 98.6145Z" fill="#121120"/>
<path opacity="0.24" fill-rule="evenodd" clip-rule="evenodd" d="M25.9429 96.6471C25.9429 97.1015 26.4955 97.4699 27.1772 97.4699C27.8588 97.4699 28.4114 97.1015 28.4114 96.6471" fill="#121120"/>
<path d="M24.5029 95.4128C24.8437 95.4128 25.12 95.1365 25.12 94.7956C25.12 94.4548 24.8437 94.1785 24.5029 94.1785C24.162 94.1785 23.8857 94.4548 23.8857 94.7956C23.8857 95.1365 24.162 95.4128 24.5029 95.4128Z" fill="#121120"/>
<path d="M29.8515 95.4128C30.1924 95.4128 30.4687 95.1365 30.4687 94.7956C30.4687 94.4548 30.1924 94.1785 29.8515 94.1785C29.5107 94.1785 29.2344 94.4548 29.2344 94.7956C29.2344 95.1365 29.5107 95.4128 29.8515 95.4128Z" fill="#121120"/>
<path d="M23.025 93.4748C23.4277 92.9082 24.5316 92.5904 25.4826 92.824C25.5929 92.8511 25.7043 92.7836 25.7314 92.6732C25.7585 92.5629 25.691 92.4515 25.5807 92.4244C24.4764 92.1532 23.198 92.5211 22.6897 93.2364C22.6238 93.329 22.6456 93.4575 22.7382 93.5233C22.8308 93.5891 22.9592 93.5674 23.025 93.4748Z" fill="#121120"/>
<path d="M31.3295 93.4748C30.9268 92.9082 29.8228 92.5904 28.8719 92.824C28.7616 92.8511 28.6502 92.7836 28.6231 92.6732C28.596 92.5629 28.6635 92.4515 28.7738 92.4244C29.8781 92.1532 31.1565 92.5211 31.6648 93.2364C31.7306 93.329 31.7089 93.4575 31.6163 93.5233C31.5237 93.5891 31.3953 93.5674 31.3295 93.4748Z" fill="#121120"/>
<mask id="mask3_106_4099" style="mask-type:alpha" maskUnits="userSpaceOnUse" x="13" y="83" width="28" height="30">
<path d="M40.7544 83.2756V112.076H37.4629V111.15C37.4629 107.06 34.1473 103.744 30.0572 103.744H29.6458L29.6459 101.853C31.449 100.996 32.7365 99.2303 32.9158 97.1477C33.51 97.0588 33.9658 96.5461 33.9658 95.9271V94.5899C33.9658 93.9784 33.521 93.4707 32.9373 93.3727L32.9372 92.7385C32.9372 91.9213 32.767 91.1438 32.4602 90.4395C31.4391 88.7271 22.7865 88.8097 21.9017 90.4227C21.5902 91.1314 21.4172 91.9147 21.4172 92.7385L21.4173 93.3727C20.8335 93.4706 20.3887 93.9783 20.3887 94.5899V95.9271C20.3887 96.5461 20.8444 97.0588 21.4387 97.1477C21.618 99.2303 22.9055 100.996 24.7087 101.853L24.7087 103.744H24.2972C20.2481 103.744 16.9579 106.994 16.8925 111.027L16.8915 111.15V112.076H13.6001V83.2756H40.7544Z" fill="white"/>
</mask>
<g mask="url(#mask3_106_4099)">
<path fill-rule="evenodd" clip-rule="evenodd" d="M26.2704 83.4813H28.1871C30.12 83.4813 31.7922 84.8267 32.206 86.7148L33.143 90.9899H21.3145L22.2515 86.7148C22.6653 84.8267 24.3375 83.4813 26.2704 83.4813Z" fill="#121120"/>
<path d="M27.1772 98.1899C34.1076 98.1899 39.7258 95.542 39.7258 92.2756C39.7258 89.0092 34.1076 86.3613 27.1772 86.3613C20.2468 86.3613 14.6287 89.0092 14.6287 92.2756C14.6287 95.542 20.2468 98.1899 27.1772 98.1899Z" fill="#121120"/>
<path d="M27.1772 94.2813C30.6992 94.2813 33.5543 93.1301 33.5543 91.7099C33.5543 90.2898 30.6992 89.1385 27.1772 89.1385C23.6552 89.1385 20.8 90.2898 20.8 91.7099C20.8 93.1301 23.6552 94.2813 27.1772 94.2813Z" fill="#401B60"/>
</g>
<path opacity="0.7" d="M26.325 94.847C26.325 95.845 25.4764 96.6544 24.0624 96.6544H23.7795C22.3655 96.6544 21.7998 95.8447 21.7998 94.847C21.7998 93.8488 21.9319 93.0397 23.9116 93.0397H24.2132C26.1929 93.0397 26.325 93.8488 26.325 94.847Z" fill="#121120"/>
<path opacity="0.7" d="M32.6575 94.847C32.6575 95.845 31.8092 96.6544 30.3949 96.6544H30.1121C28.698 96.6544 28.1323 95.8447 28.1323 94.847C28.1323 93.8488 28.2644 93.0397 30.2441 93.0397H30.5457C32.5251 93.0397 32.6575 93.8488 32.6575 94.847Z" fill="#121120"/>
<path d="M24.213 92.7385C26.44 92.7385 26.6263 93.7802 26.6263 94.8471C26.6263 96.0884 25.5721 96.9557 24.0622 96.9557H23.7793C22.3509 96.9557 21.498 96.1674 21.498 94.8471C21.498 93.7802 21.6844 92.7385 23.9114 92.7385H24.213ZM24.213 93.3407H23.9114C22.1374 93.3407 22.1019 93.9791 22.1012 94.7968L22.1012 94.8471C22.1012 95.5342 22.3922 96.3532 23.7793 96.3532H24.0622C25.2169 96.3532 26.0232 95.7339 26.0232 94.8471L26.0232 94.7718C26.0232 94.7635 26.0231 94.7552 26.0231 94.747L26.0228 94.6976C26.0167 93.9281 25.9146 93.3407 24.213 93.3407Z" fill="#121120"/>
<path d="M30.5457 92.7385C32.7727 92.7385 32.9591 93.7802 32.9591 94.8471C32.9591 96.0884 31.9049 96.9557 30.395 96.9557H30.1121C28.6836 96.9557 27.8308 96.1674 27.8308 94.8471C27.8308 93.7802 28.0172 92.7385 30.2442 92.7385H30.5457ZM30.5457 93.3407H30.2442C28.4701 93.3407 28.4347 93.9791 28.4339 94.7968L28.4339 94.8471C28.4339 95.5342 28.7252 96.3532 30.1121 96.3532H30.395C31.5496 96.3532 32.356 95.7339 32.356 94.8471L32.3559 94.7718C32.3559 94.7635 32.3559 94.7552 32.3559 94.747L32.3556 94.6976C32.3495 93.9281 32.2474 93.3407 30.5457 93.3407Z" fill="#121120"/>
<path d="M20.896 93.341C20.9666 93.2705 21.7386 92.7385 23.9116 92.7385C25.7336 92.7385 26.1193 92.9319 26.7031 93.2241L26.7459 93.2457C26.7865 93.2603 26.994 93.3324 27.2368 93.3404C27.458 93.3307 27.6472 93.2693 27.7025 93.2497C28.3689 92.9183 29.0212 92.7385 30.5459 92.7385C32.7189 92.7385 33.4909 93.2705 33.5615 93.341C33.7283 93.341 33.8631 93.4756 33.8631 93.6422V93.9434C33.8631 94.11 33.7283 94.2446 33.5615 94.2446C33.5615 94.2446 32.9584 94.2446 32.9584 94.5459C32.9584 94.8471 32.6568 94.11 32.6568 93.9434V93.65C32.289 93.5061 31.6307 93.341 30.5459 93.341C29.3373 93.341 28.7354 93.4573 28.219 93.6749L28.2248 93.6892L27.9681 93.7928L28.2246 93.8965L27.9983 94.4549L27.7187 94.3419C27.6938 94.3318 27.6399 94.3137 27.5652 94.2949C27.357 94.2423 27.1429 94.2263 26.9536 94.2661C26.8842 94.2807 26.8197 94.3025 26.7606 94.3321L26.4909 94.4669L26.221 93.9281L26.4907 93.7933L26.4914 93.793L26.233 93.6886L26.2413 93.6682C25.796 93.456 25.3854 93.341 23.9116 93.341C22.8269 93.341 22.1686 93.506 21.8007 93.6499V93.9434C21.8007 94.11 21.4992 94.8471 21.4992 94.5459C21.4992 94.2446 20.896 94.2446 20.896 94.2446C20.7296 94.2446 20.5945 94.11 20.5945 93.9434V93.6422C20.5945 93.4756 20.7296 93.341 20.896 93.341Z" fill="#121120"/>
</g>
</svg>
